<?xml version="1.0" encoding="UTF-8" standalone="no"?>
<!DOCTYPE svg PUBLIC "-//W3C//DTD SVG 1.1//EN" "http://www.w3.org/Graphics/SVG/1.1/DTD/svg11.dtd">
<svg width="100%" height="100%" viewBox="0 0 4737 1392" version="1.1" xmlns="http://www.w3.org/2000/svg" xmlns:xlink="http://www.w3.org/1999/xlink" xml:space="preserve" xmlns:serif="http://www.serif.com/" style="fill-rule:evenodd;clip-rule:evenodd;stroke-linejoin:round;stroke-miterlimit:2;">
    <g transform="matrix(1,0,0,1,-0,-32.775286)">
        <g transform="matrix(0.977077,0,0,0.977077,-24025.778188,-476.704794)">
            <g transform="matrix(1,0,0,1,-17.15338,0.067825)">
                <g transform="matrix(3.851272,0,0,3.851272,21791.146232,-2439.330174)">
                    <g transform="matrix(0.249699,0,0,0.249699,106.648737,-520.984629)">
                        <g>
                            <g transform="matrix(2.163334,0,0,2.363004,-3062.356982,3180.375028)">
                                <g id="Icono" transform="matrix(0.732865,0,0,0.816935,2092.829691,649.607525)">
                                    <path d="M653.102,775.072L653.102,233L1496.315,233C1307.099,332.898 1318.142,521.292 1287.507,645.265C1276.329,690.502 1282.746,587.321 1273.418,538.876C1264.162,490.81 1224.51,478.878 1173.258,536.009C1101.803,615.66 1084.409,696.143 1082.289,699.058C1078.177,704.713 1072.582,702.059 1074.633,695.905C1081.113,676.463 1116.641,569.871 1101.185,446.005C1081.531,288.483 818.958,386.843 653.102,775.072ZM1587,233L1587,1000L993.681,1000C1017.134,941.048 1042.358,839.346 1052.764,812.911C1105.08,680.01 1147.072,584.155 1209.505,528.222C1279.688,465.345 1245.417,681.004 1267.143,694.04C1305.702,717.177 1315.513,586.966 1346.937,466.626C1356.826,428.755 1372.591,394.929 1388.33,364.1C1412.691,316.384 1488.533,250.339 1541.664,233L1587,233ZM966.062,1000L653.102,1000L653.102,834.681C664.49,805.621 680.214,768.231 702.54,720.488C825.892,456.7 1018.647,351.637 1062.006,404.136C1073.342,417.861 1097.217,446.769 1074.233,606.563C1052.619,756.826 999.763,893.798 999.211,895.553C983.562,945.306 972.76,978.213 966.062,1000Z"/>
                                </g>
                            </g>
                        </g>
                    </g>
                </g>
            </g>
        </g>
        <g transform="matrix(0.977077,0,0,0.977077,-24025.778188,-476.704794)">
            <g transform="matrix(4.592537,0,0,4.592537,11454.279978,-1307.354778)">
                <path d="M3371.809,691.83L3371.809,448.502L3388.457,464.956L3370.647,464.956L3278.698,599.687L3436.464,599.687L3436.464,630.659L3240.95,630.659L3240.95,605.687L3370.067,414.626L3404.717,414.626L3404.717,691.83L3371.809,691.83Z" style="fill-rule:nonzero;"/>
                <path d="M3579.518,698.024C3547.513,698.024 3521.993,684.57 3502.958,657.663C3483.923,630.756 3474.405,595.879 3474.405,553.034C3474.405,510.318 3483.923,475.539 3502.958,448.696C3521.993,421.853 3547.513,408.432 3579.518,408.432C3611.781,408.432 3637.494,421.853 3656.659,448.696C3675.823,475.539 3685.405,510.318 3685.405,553.034C3685.405,595.879 3675.823,630.756 3656.659,657.663C3637.494,684.57 3611.781,698.024 3579.518,698.024ZM3579.711,666.664C3602.683,666.664 3620.492,656.437 3633.139,635.982C3645.786,615.528 3652.11,587.878 3652.11,553.034C3652.11,518.19 3645.786,490.605 3633.139,470.28C3620.492,449.954 3602.683,439.791 3579.711,439.791C3556.869,439.791 3539.157,449.954 3526.574,470.28C3513.992,490.605 3507.7,518.19 3507.7,553.034C3507.7,587.878 3513.992,615.528 3526.574,635.982C3539.157,656.437 3556.869,666.664 3579.711,666.664Z" style="fill-rule:nonzero;"/>
                <path d="M3851.108,691.83L3851.108,448.502L3867.755,464.956L3849.946,464.956L3757.997,599.687L3915.763,599.687L3915.763,630.659L3720.249,630.659L3720.249,605.687L3849.365,414.626L3884.016,414.626L3884.016,691.83L3851.108,691.83Z" style="fill-rule:nonzero;"/>
            </g>
        </g>
    </g>
</svg>
