<?xml version="1.0" encoding="UTF-8" standalone="no"?>
<!DOCTYPE svg PUBLIC "-//W3C//DTD SVG 1.1//EN" "http://www.w3.org/Graphics/SVG/1.1/DTD/svg11.dtd">
<svg width="100%" height="100%" viewBox="0 0 2041 851" version="1.1" xmlns="http://www.w3.org/2000/svg" xmlns:xlink="http://www.w3.org/1999/xlink" xml:space="preserve" xmlns:serif="http://www.serif.com/" style="fill-rule:evenodd;clip-rule:evenodd;stroke-linejoin:round;stroke-miterlimit:2;">
    <g transform="matrix(1,0,0,1,-1878.283788,-1456.63663)">
        <g transform="matrix(2.031267,0,0,1,-1370.708495,1270.314326)">
            <g transform="matrix(2.189263,0,0,2.189263,-1255.079322,111.040609)">
                <g id="Icon" transform="matrix(0.430266,0,0,0.873986,699.953712,-25.910023)">
                    <path d="M1799.039,83.037C1779.599,98.101 1759.569,120.84 1751.883,139.379C1744.873,156.285 1739.516,176.517 1735.112,197.284C1721.117,263.277 1716.748,334.683 1699.575,321.995C1689.899,314.846 1705.162,196.582 1673.905,231.063C1646.1,261.736 1627.398,314.301 1604.099,387.182C1597.436,408.022 1577.135,514.165 1565.147,513.328C1558.16,512.84 1560.791,508.673 1580.249,432.502C1580.494,431.539 1604.034,356.426 1613.66,274.024C1623.897,186.395 1613.264,170.543 1608.215,163.016C1588.905,134.227 1503.059,191.841 1448.123,336.499C1408.005,442.138 1415.752,455.343 1405.07,449.039C1403.13,447.895 1399.976,446.604 1420.457,383.288C1493.843,156.42 1616.684,97.357 1625.664,185.976C1632.547,253.903 1616.724,312.356 1613.838,323.018C1612.925,326.392 1615.417,327.848 1617.248,324.747C1618.192,323.148 1625.939,279.013 1657.762,235.333C1680.588,204.003 1698.247,210.547 1702.369,236.905C1706.524,263.472 1703.666,320.055 1708.644,295.248C1722.146,227.969 1717.47,126.095 1799.039,70.892C1799.039,70.892 1806.366,66.096 1808.449,71.738C1810.104,76.22 1799.039,83.037 1799.039,83.037Z" style="fill-opacity:0.98;"/>
                </g>
                <g id="Mateo-Chicas" serif:id="Mateo Chicas" transform="matrix(1.683281,0,0,3.903659,983.012605,-2748.619603)">
                    <g transform="matrix(50,0,0,50,291.835515,748.938493)">
                        <path d="M0.124,0.003C0.117,0.003 0.111,0 0.106,-0.005C0.101,-0.01 0.099,-0.016 0.099,-0.023L0.099,-0.678C0.099,-0.69 0.103,-0.7 0.111,-0.708C0.119,-0.716 0.129,-0.72 0.14,-0.72C0.148,-0.72 0.155,-0.718 0.162,-0.713C0.169,-0.708 0.174,-0.703 0.177,-0.697L0.503,-0.07L0.505,-0.07L0.831,-0.696C0.834,-0.703 0.838,-0.708 0.845,-0.713C0.852,-0.718 0.859,-0.72 0.867,-0.72C0.879,-0.72 0.888,-0.716 0.896,-0.708C0.904,-0.7 0.908,-0.69 0.908,-0.678L0.908,-0.023C0.908,-0.016 0.906,-0.01 0.901,-0.005C0.896,0 0.89,0.003 0.883,0.003C0.876,0.003 0.87,0 0.866,-0.005C0.861,-0.01 0.858,-0.016 0.858,-0.023L0.858,-0.526L0.861,-0.643L0.859,-0.643L0.53,-0.014C0.527,-0.009 0.524,-0.005 0.519,-0.002C0.514,0.001 0.509,0.003 0.503,0.003C0.497,0.003 0.492,0.001 0.487,-0.002C0.482,-0.005 0.479,-0.009 0.477,-0.014L0.148,-0.644L0.146,-0.644L0.149,-0.526L0.149,-0.023C0.149,-0.016 0.146,-0.01 0.142,-0.005C0.137,0 0.131,0.003 0.124,0.003Z" style="fill-rule:nonzero;"/>
                    </g>
                    <g transform="matrix(50,0,0,50,342.200104,748.938493)">
                        <path d="M0.273,0.017C0.205,0.017 0.15,0.002 0.108,-0.028C0.067,-0.057 0.046,-0.098 0.046,-0.149C0.046,-0.203 0.07,-0.245 0.116,-0.274C0.162,-0.304 0.224,-0.319 0.302,-0.319C0.35,-0.319 0.393,-0.314 0.432,-0.304C0.47,-0.294 0.502,-0.281 0.526,-0.265L0.526,-0.315C0.526,-0.367 0.509,-0.408 0.473,-0.436C0.437,-0.464 0.386,-0.478 0.319,-0.478C0.279,-0.478 0.242,-0.472 0.21,-0.459C0.177,-0.447 0.148,-0.431 0.122,-0.411C0.116,-0.406 0.111,-0.404 0.104,-0.404C0.098,-0.404 0.093,-0.406 0.089,-0.411C0.085,-0.415 0.083,-0.421 0.083,-0.427C0.084,-0.433 0.086,-0.438 0.092,-0.443C0.118,-0.467 0.151,-0.485 0.189,-0.5C0.227,-0.514 0.271,-0.521 0.321,-0.521C0.401,-0.521 0.464,-0.504 0.508,-0.469C0.553,-0.434 0.575,-0.384 0.575,-0.318L0.575,-0.022C0.575,-0.015 0.573,-0.009 0.568,-0.004C0.563,0 0.557,0.003 0.551,0.003C0.544,0.003 0.539,0 0.534,-0.004C0.529,-0.009 0.527,-0.015 0.527,-0.022L0.527,-0.142L0.544,-0.115L0.525,-0.115C0.507,-0.078 0.475,-0.047 0.431,-0.022C0.386,0.004 0.333,0.017 0.273,0.017ZM0.281,-0.026C0.346,-0.026 0.401,-0.043 0.446,-0.077C0.491,-0.111 0.518,-0.154 0.526,-0.205L0.526,-0.223C0.501,-0.241 0.469,-0.255 0.431,-0.265C0.393,-0.274 0.353,-0.279 0.31,-0.279C0.244,-0.279 0.192,-0.268 0.154,-0.246C0.117,-0.224 0.098,-0.192 0.098,-0.149C0.098,-0.111 0.115,-0.081 0.148,-0.059C0.182,-0.037 0.226,-0.026 0.281,-0.026Z" style="fill-rule:nonzero;"/>
                    </g>
                    <g transform="matrix(50,0,0,50,374.347851,748.938493)">
                        <path d="M0.301,0.017C0.254,0.017 0.216,0.004 0.189,-0.023C0.163,-0.05 0.149,-0.089 0.149,-0.141L0.149,-0.632C0.149,-0.638 0.152,-0.644 0.156,-0.649C0.161,-0.654 0.167,-0.657 0.174,-0.657C0.181,-0.657 0.187,-0.654 0.192,-0.649C0.197,-0.644 0.199,-0.638 0.199,-0.632L0.199,-0.149C0.199,-0.108 0.208,-0.078 0.226,-0.058C0.244,-0.038 0.271,-0.028 0.307,-0.028C0.323,-0.028 0.338,-0.03 0.351,-0.034C0.365,-0.038 0.378,-0.043 0.391,-0.051C0.397,-0.053 0.403,-0.052 0.409,-0.049C0.414,-0.046 0.417,-0.041 0.419,-0.035C0.42,-0.03 0.419,-0.025 0.417,-0.02C0.414,-0.016 0.41,-0.012 0.405,-0.01C0.391,-0.002 0.376,0.005 0.358,0.01C0.341,0.014 0.322,0.017 0.301,0.017ZM0.053,-0.459C0.047,-0.459 0.041,-0.461 0.036,-0.466C0.032,-0.47 0.029,-0.476 0.029,-0.482C0.029,-0.488 0.032,-0.493 0.036,-0.498C0.041,-0.502 0.047,-0.504 0.053,-0.504L0.385,-0.504C0.392,-0.504 0.398,-0.502 0.402,-0.498C0.407,-0.493 0.409,-0.488 0.409,-0.482C0.409,-0.476 0.407,-0.47 0.402,-0.466C0.398,-0.461 0.392,-0.459 0.385,-0.459L0.053,-0.459Z" style="fill-rule:nonzero;"/>
                    </g>
                    <g transform="matrix(50,0,0,50,397.262334,748.938493)">
                        <path d="M0.336,0.017C0.251,0.017 0.182,-0.008 0.129,-0.057C0.076,-0.107 0.049,-0.171 0.049,-0.251C0.049,-0.33 0.076,-0.394 0.129,-0.445C0.182,-0.496 0.251,-0.521 0.335,-0.521C0.416,-0.521 0.482,-0.499 0.532,-0.454C0.581,-0.409 0.606,-0.352 0.606,-0.281C0.606,-0.281 0.606,-0.28 0.606,-0.28C0.606,-0.272 0.604,-0.266 0.598,-0.261C0.593,-0.256 0.586,-0.253 0.579,-0.253L0.078,-0.253L0.078,-0.294L0.556,-0.294C0.554,-0.347 0.534,-0.391 0.495,-0.425C0.457,-0.46 0.404,-0.477 0.336,-0.477C0.265,-0.477 0.208,-0.457 0.165,-0.415C0.122,-0.374 0.1,-0.32 0.1,-0.252C0.1,-0.184 0.122,-0.129 0.167,-0.088C0.212,-0.048 0.269,-0.027 0.337,-0.027C0.386,-0.027 0.427,-0.036 0.46,-0.052C0.493,-0.068 0.522,-0.091 0.547,-0.12C0.552,-0.125 0.557,-0.129 0.564,-0.129C0.57,-0.13 0.575,-0.129 0.581,-0.126C0.586,-0.122 0.589,-0.117 0.589,-0.111C0.59,-0.105 0.588,-0.099 0.584,-0.093C0.559,-0.06 0.525,-0.033 0.485,-0.013C0.444,0.007 0.394,0.017 0.336,0.017Z" style="fill-rule:nonzero;"/>
                    </g>
                    <g transform="matrix(50,0,0,50,430.120933,748.938493)">
                        <path d="M0.353,0.017C0.263,0.017 0.19,-0.008 0.134,-0.059C0.078,-0.11 0.049,-0.174 0.049,-0.253C0.049,-0.332 0.078,-0.396 0.136,-0.446C0.193,-0.496 0.266,-0.521 0.354,-0.521C0.441,-0.521 0.513,-0.496 0.57,-0.445C0.627,-0.394 0.656,-0.33 0.656,-0.253C0.656,-0.175 0.628,-0.111 0.572,-0.06C0.516,-0.009 0.443,0.017 0.353,0.017ZM0.353,-0.027C0.427,-0.027 0.487,-0.048 0.534,-0.09C0.582,-0.132 0.605,-0.186 0.605,-0.253C0.605,-0.319 0.581,-0.373 0.533,-0.415C0.485,-0.456 0.425,-0.477 0.353,-0.477C0.281,-0.477 0.221,-0.456 0.172,-0.415C0.124,-0.373 0.1,-0.32 0.1,-0.253C0.1,-0.186 0.124,-0.132 0.171,-0.09C0.219,-0.048 0.279,-0.027 0.353,-0.027Z" style="fill-rule:nonzero;"/>
                    </g>
                    <g transform="matrix(50,0,0,50,291.835515,811.530813)">
                        <path d="M0.449,0.017C0.333,0.017 0.236,-0.018 0.16,-0.089C0.084,-0.16 0.046,-0.25 0.046,-0.359C0.046,-0.468 0.085,-0.558 0.161,-0.628C0.238,-0.698 0.334,-0.733 0.45,-0.733C0.486,-0.733 0.521,-0.729 0.555,-0.721C0.589,-0.712 0.62,-0.7 0.649,-0.685C0.677,-0.669 0.698,-0.654 0.713,-0.641C0.725,-0.63 0.732,-0.617 0.733,-0.603C0.734,-0.589 0.73,-0.577 0.721,-0.567C0.711,-0.556 0.699,-0.551 0.685,-0.55C0.672,-0.549 0.659,-0.554 0.647,-0.564C0.633,-0.575 0.617,-0.586 0.597,-0.597C0.577,-0.607 0.554,-0.616 0.529,-0.621C0.505,-0.627 0.478,-0.63 0.45,-0.63C0.366,-0.63 0.297,-0.605 0.241,-0.555C0.185,-0.506 0.158,-0.44 0.158,-0.36C0.158,-0.279 0.185,-0.213 0.24,-0.162C0.296,-0.112 0.365,-0.087 0.449,-0.087C0.479,-0.087 0.508,-0.09 0.535,-0.097C0.563,-0.104 0.587,-0.114 0.609,-0.126C0.631,-0.139 0.648,-0.15 0.66,-0.16C0.673,-0.171 0.686,-0.177 0.7,-0.176C0.715,-0.176 0.727,-0.171 0.737,-0.16C0.748,-0.149 0.753,-0.136 0.752,-0.122C0.751,-0.108 0.745,-0.095 0.733,-0.083C0.715,-0.066 0.69,-0.049 0.66,-0.033C0.63,-0.016 0.597,-0.004 0.562,0.005C0.526,0.013 0.489,0.017 0.449,0.017Z" style="fill-rule:nonzero;"/>
                    </g>
                    <g transform="matrix(50,0,0,50,331.54222,811.530813)">
                        <path d="M0.124,0.006C0.109,0.006 0.097,0.001 0.086,-0.01C0.075,-0.021 0.07,-0.034 0.07,-0.049L0.07,-0.668C0.07,-0.682 0.075,-0.695 0.086,-0.706C0.096,-0.717 0.109,-0.722 0.124,-0.722C0.139,-0.722 0.151,-0.717 0.162,-0.706C0.172,-0.695 0.178,-0.682 0.178,-0.668L0.178,-0.429L0.181,-0.429C0.197,-0.458 0.222,-0.482 0.256,-0.501C0.289,-0.519 0.327,-0.529 0.369,-0.529C0.433,-0.529 0.484,-0.51 0.521,-0.473C0.557,-0.436 0.576,-0.386 0.576,-0.322L0.576,-0.049C0.576,-0.034 0.57,-0.021 0.56,-0.01C0.549,0 0.536,0.006 0.521,0.006C0.506,0.006 0.494,0 0.483,-0.01C0.472,-0.021 0.467,-0.034 0.467,-0.049L0.467,-0.297C0.467,-0.341 0.455,-0.376 0.433,-0.4C0.41,-0.424 0.377,-0.436 0.334,-0.436C0.291,-0.436 0.254,-0.42 0.224,-0.388C0.194,-0.356 0.179,-0.317 0.179,-0.273L0.179,-0.049C0.179,-0.034 0.173,-0.021 0.163,-0.01C0.152,0 0.139,0.006 0.124,0.006Z" style="fill-rule:nonzero;"/>
                    </g>
                    <g transform="matrix(50,0,0,50,363.483672,811.530813)">
                        <path d="M0.13,0.006C0.115,0.006 0.102,0.001 0.091,-0.01C0.08,-0.021 0.075,-0.034 0.075,-0.05L0.075,-0.462C0.075,-0.477 0.08,-0.49 0.091,-0.501C0.102,-0.512 0.115,-0.517 0.13,-0.517C0.144,-0.517 0.157,-0.512 0.168,-0.501C0.179,-0.49 0.184,-0.477 0.184,-0.462L0.184,-0.05C0.184,-0.034 0.179,-0.021 0.168,-0.01C0.157,0.001 0.144,0.006 0.13,0.006ZM0.13,-0.61C0.11,-0.61 0.094,-0.617 0.08,-0.63C0.067,-0.643 0.06,-0.659 0.06,-0.678C0.06,-0.697 0.067,-0.713 0.08,-0.727C0.094,-0.74 0.11,-0.746 0.13,-0.746C0.149,-0.746 0.166,-0.74 0.178,-0.727C0.192,-0.713 0.198,-0.697 0.198,-0.678C0.198,-0.659 0.192,-0.643 0.178,-0.63C0.166,-0.617 0.149,-0.61 0.13,-0.61Z" style="fill-rule:nonzero;"/>
                    </g>
                    <g transform="matrix(50,0,0,50,376.424811,811.530813)">
                        <path d="M0.325,0.017C0.241,0.017 0.172,-0.008 0.118,-0.06C0.065,-0.111 0.038,-0.177 0.038,-0.256C0.038,-0.337 0.065,-0.402 0.12,-0.453C0.175,-0.503 0.244,-0.529 0.327,-0.529C0.38,-0.529 0.426,-0.519 0.465,-0.498C0.504,-0.478 0.532,-0.455 0.549,-0.429C0.557,-0.416 0.559,-0.403 0.556,-0.39C0.553,-0.378 0.545,-0.368 0.533,-0.362C0.522,-0.355 0.511,-0.354 0.499,-0.357C0.487,-0.36 0.478,-0.366 0.471,-0.376C0.457,-0.393 0.438,-0.407 0.413,-0.418C0.389,-0.43 0.36,-0.435 0.327,-0.435C0.276,-0.435 0.233,-0.419 0.198,-0.386C0.163,-0.353 0.145,-0.31 0.145,-0.257C0.145,-0.204 0.163,-0.161 0.197,-0.127C0.232,-0.093 0.275,-0.076 0.326,-0.076C0.362,-0.076 0.392,-0.082 0.418,-0.095C0.443,-0.108 0.462,-0.122 0.475,-0.138C0.483,-0.148 0.493,-0.154 0.505,-0.157C0.516,-0.159 0.527,-0.157 0.538,-0.151C0.55,-0.145 0.558,-0.135 0.561,-0.123C0.564,-0.11 0.562,-0.098 0.555,-0.086C0.536,-0.059 0.506,-0.034 0.466,-0.014C0.426,0.007 0.379,0.017 0.325,0.017Z" style="fill-rule:nonzero;"/>
                    </g>
                    <g transform="matrix(50,0,0,50,406.721561,811.530813)">
                        <path d="M0.245,0.018C0.181,0.018 0.131,0.002 0.093,-0.028C0.055,-0.059 0.036,-0.099 0.036,-0.15C0.036,-0.204 0.058,-0.247 0.102,-0.278C0.146,-0.308 0.205,-0.324 0.278,-0.324C0.314,-0.324 0.347,-0.321 0.378,-0.315C0.409,-0.308 0.434,-0.301 0.455,-0.291L0.455,-0.32C0.455,-0.358 0.441,-0.387 0.414,-0.409C0.386,-0.431 0.347,-0.442 0.296,-0.442C0.263,-0.442 0.234,-0.437 0.208,-0.428C0.183,-0.418 0.16,-0.407 0.142,-0.393C0.131,-0.385 0.119,-0.382 0.108,-0.382C0.097,-0.383 0.087,-0.387 0.079,-0.396C0.071,-0.405 0.068,-0.416 0.069,-0.427C0.07,-0.439 0.077,-0.449 0.088,-0.458C0.111,-0.478 0.141,-0.495 0.178,-0.508C0.215,-0.522 0.257,-0.528 0.304,-0.528C0.387,-0.528 0.451,-0.51 0.495,-0.474C0.54,-0.438 0.562,-0.387 0.562,-0.32L0.562,-0.049C0.562,-0.034 0.557,-0.021 0.547,-0.01C0.536,0.001 0.523,0.006 0.508,0.006C0.493,0.006 0.481,0.001 0.471,-0.008C0.46,-0.017 0.455,-0.028 0.455,-0.04L0.455,-0.121L0.484,-0.078L0.452,-0.078C0.433,-0.051 0.405,-0.028 0.369,-0.01C0.333,0.008 0.291,0.018 0.245,0.018ZM0.273,-0.069C0.323,-0.069 0.364,-0.083 0.397,-0.109C0.431,-0.136 0.45,-0.169 0.455,-0.207L0.455,-0.216C0.435,-0.227 0.412,-0.235 0.385,-0.241C0.358,-0.246 0.329,-0.249 0.299,-0.249C0.252,-0.249 0.215,-0.242 0.187,-0.226C0.159,-0.211 0.145,-0.188 0.145,-0.157C0.145,-0.13 0.157,-0.108 0.181,-0.093C0.205,-0.077 0.235,-0.069 0.273,-0.069Z" style="fill-rule:nonzero;"/>
                    </g>
                    <g transform="matrix(50,0,0,50,438.017754,811.530813)">
                        <path d="M0.276,0.017C0.222,0.017 0.175,0.008 0.136,-0.011C0.097,-0.029 0.068,-0.052 0.049,-0.078C0.04,-0.089 0.037,-0.1 0.038,-0.113C0.04,-0.125 0.046,-0.135 0.056,-0.142C0.067,-0.15 0.078,-0.153 0.09,-0.151C0.102,-0.149 0.113,-0.143 0.121,-0.134C0.137,-0.117 0.158,-0.103 0.185,-0.09C0.212,-0.077 0.245,-0.07 0.283,-0.07C0.319,-0.07 0.347,-0.076 0.367,-0.089C0.388,-0.101 0.398,-0.119 0.398,-0.142C0.398,-0.161 0.389,-0.176 0.37,-0.187C0.351,-0.198 0.313,-0.209 0.258,-0.22C0.184,-0.235 0.132,-0.254 0.099,-0.278C0.067,-0.303 0.051,-0.335 0.051,-0.376C0.051,-0.423 0.072,-0.46 0.114,-0.488C0.156,-0.515 0.209,-0.529 0.273,-0.529C0.315,-0.529 0.354,-0.522 0.388,-0.51C0.423,-0.497 0.448,-0.48 0.464,-0.46C0.473,-0.45 0.478,-0.438 0.477,-0.426C0.477,-0.413 0.471,-0.403 0.461,-0.395C0.452,-0.388 0.443,-0.385 0.432,-0.386C0.421,-0.387 0.411,-0.391 0.401,-0.4C0.387,-0.412 0.369,-0.421 0.346,-0.429C0.323,-0.437 0.298,-0.441 0.27,-0.441C0.237,-0.441 0.21,-0.436 0.189,-0.425C0.168,-0.414 0.158,-0.399 0.158,-0.379C0.158,-0.361 0.166,-0.347 0.183,-0.336C0.199,-0.326 0.238,-0.315 0.299,-0.303C0.377,-0.288 0.43,-0.268 0.46,-0.243C0.49,-0.218 0.505,-0.186 0.505,-0.147C0.505,-0.097 0.484,-0.057 0.443,-0.027C0.401,0.003 0.345,0.017 0.276,0.017Z" style="fill-rule:nonzero;"/>
                    </g>
                    <g transform="matrix(50,0,0,50,465.003342,811.530813)">
                    </g>
                </g>
            </g>
        </g>
    </g>
</svg>
