<?xml version="1.0" encoding="UTF-8" standalone="no"?>
<!DOCTYPE svg PUBLIC "-//W3C//DTD SVG 1.1//EN" "http://www.w3.org/Graphics/SVG/1.1/DTD/svg11.dtd">
<svg width="100%" height="100%" viewBox="0 0 705 705" version="1.1" xmlns="http://www.w3.org/2000/svg" xmlns:xlink="http://www.w3.org/1999/xlink" xml:space="preserve" xmlns:serif="http://www.serif.com/" style="fill-rule:evenodd;clip-rule:evenodd;stroke-linejoin:round;stroke-miterlimit:2;">
    <g transform="matrix(1,0,0,1,-251.990483,-1529.235745)">
        <g transform="matrix(1,0,0,1,0,2542.314326)">
            <g id="Icono" transform="matrix(0.7549,0,0,0.919166,-241.03655,-1227.244162)">
                <path d="M653.102,775.072L653.102,233L1496.315,233C1307.099,332.898 1318.142,521.292 1287.507,645.265C1276.329,690.502 1282.746,587.321 1273.418,538.876C1264.162,490.81 1224.51,478.878 1173.258,536.009C1101.803,615.66 1084.409,696.143 1082.289,699.058C1078.177,704.713 1072.582,702.059 1074.633,695.905C1081.113,676.463 1116.641,569.871 1101.185,446.005C1081.531,288.483 818.958,386.843 653.102,775.072ZM1587,233L1587,1000L993.681,1000C1017.134,941.048 1042.358,839.346 1052.764,812.911C1105.08,680.01 1147.072,584.155 1209.505,528.222C1279.688,465.345 1245.417,681.004 1267.143,694.04C1305.702,717.177 1315.513,586.966 1346.937,466.626C1356.826,428.755 1372.591,394.929 1388.33,364.1C1412.691,316.384 1488.533,250.339 1541.664,233L1587,233ZM966.062,1000L653.102,1000L653.102,834.681C664.49,805.621 680.214,768.231 702.54,720.488C825.892,456.7 1018.647,351.637 1062.006,404.136C1073.342,417.861 1097.217,446.769 1074.233,606.563C1052.619,756.826 999.763,893.798 999.211,895.553C983.562,945.306 972.76,978.213 966.062,1000Z"/>
            </g>
        </g>
    </g>
</svg>
